<svg width="38" height="39" viewBox="0 0 38 39" fill="none" xmlns="http://www.w3.org/2000/svg">
<g id="grommet-icons:money">
<path id="Vector" d="M25.3334 25.8337C25.3334 24.0841 20.3712 22.667 14.25 22.667M25.3334 25.8337C25.3334 27.5832 20.3712 29.0003 14.25 29.0003C8.12887 29.0003 3.16671 27.5832 3.16671 25.8337M25.3334 25.8337V33.6506C25.3334 35.454 20.3712 36.917 14.25 36.917C8.12887 36.917 3.16671 35.4556 3.16671 33.6506V25.8337M25.3334 25.8337C31.388 25.8337 36.4167 24.2709 36.4167 22.667V6.83366M14.25 22.667C8.12887 22.667 3.16671 24.0841 3.16671 25.8337M14.25 22.667C7.25487 22.667 1.58337 21.1042 1.58337 19.5003V11.5837M14.25 8.41699C7.25487 8.41699 1.58337 9.83408 1.58337 11.5837M1.58337 11.5837C1.58337 13.3332 7.25487 14.7503 14.25 14.7503C14.25 16.3542 19.4006 17.917 25.4553 17.917C31.5084 17.917 36.4167 16.3542 36.4167 14.7503M36.4167 6.83366C36.4167 5.08408 31.5084 3.66699 25.4553 3.66699C19.4006 3.66699 14.4939 5.08408 14.4939 6.83366M36.4167 6.83366C36.4167 8.58324 31.5084 10.0003 25.4553 10.0003C19.4022 10.0003 14.4939 8.58324 14.4939 6.83366M14.4939 6.83366V22.9298" stroke="white"/>
</g>
</svg>
